<?xml version="1.0" standalone="no"?>
<!DOCTYPE svg PUBLIC "-//W3C//DTD SVG 20010904//EN"
 "http://www.w3.org/TR/2001/REC-SVG-20010904/DTD/svg10.dtd">
<svg version="1.0" xmlns="http://www.w3.org/2000/svg"
 width="512.000000pt" height="512.000000pt" viewBox="0 0 512.000000 512.000000"
 preserveAspectRatio="xMidYMid meet">
<metadata>
Created by potrace 1.14, written by Peter Selinger 2001-2017
</metadata>
<g transform="translate(0.000000,512.000000) scale(0.100000,-0.100000)"
fill="#000000" stroke="none">
<path d="M2315 5109 c-198 -20 -414 -68 -605 -134 -130 -45 -374 -162 -499
-240 -404 -250 -725 -603 -942 -1035 -54 -107 -129 -287 -129 -309 0 -5 13
-12 30 -16 16 -4 32 -10 35 -15 3 -5 -5 -43 -17 -84 -17 -58 -26 -75 -38 -72
-71 22 -65 27 -89 -86 -71 -341 -79 -653 -25 -978 119 -718 543 -1352 1174
-1754 98 -63 349 -185 475 -231 319 -117 729 -176 1048 -149 l77 7 -6 37 c-3
21 -2 40 2 43 5 2 41 8 81 12 l72 7 6 -36 c9 -44 19 -45 165 -12 756 171 1384
667 1725 1361 175 355 250 668 262 1088 l6 207 -47 0 c-44 0 -46 1 -46 28 0
15 -3 50 -6 78 l-7 52 42 7 c40 7 41 8 36 38 -3 18 -9 52 -13 77 l-8 45 -41
-2 -42 -2 -15 69 c-21 90 -21 87 20 100 33 11 35 14 28 43 -24 111 -137 388
-219 537 -155 281 -389 562 -630 757 -352 285 -791 476 -1255 548 -126 19
-477 28 -605 14z m1001 -484 c179 -37 405 -137 590 -260 164 -109 269 -231
313 -363 80 -235 -81 -379 -335 -301 -74 23 -726 345 -869 429 -186 110 -250
221 -194 337 21 44 81 103 131 129 84 44 234 55 364 29z m1081 -974 c74 -53
101 -147 67 -231 -19 -47 -38 -60 -91 -60 -75 0 -213 108 -213 166 0 46 48
111 105 142 37 21 89 14 132 -17z m-1917 -456 c0 -175 -6 -206 -47 -224 -25
-12 -753 -17 -753 -5 0 10 191 287 219 317 27 30 68 54 111 68 14 4 125 8 248
8 l222 1 0 -165z m320 -13 c0 -209 9 -247 73 -310 74 -73 66 -72 644 -72 l514
0 24 -25 c25 -24 25 -27 25 -200 l0 -175 -141 0 -142 0 -42 39 c-140 129 -353
157 -531 71 -51 -25 -156 -118 -181 -161 l-17 -29 -466 0 -466 0 -17 29 c-25
43 -127 133 -181 160 -177 87 -391 59 -531 -70 l-42 -39 -142 0 -141 0 0 175
c0 173 0 176 25 200 l24 25 672 0 c498 0 682 3 713 12 55 16 138 99 154 154 7
26 12 108 12 218 l0 176 80 0 80 0 0 -178z m314 167 c24 -6 60 -24 79 -40 31
-25 247 -326 247 -343 0 -11 -408 -6 -433 5 -41 18 -47 49 -47 224 l0 165 56
0 c30 0 75 -5 98 -11z m-2000 -1136 c-16 -66 -62 -112 -126 -127 l-28 -6 0 80
0 80 80 0 80 0 -6 -27z m3046 -53 l0 -80 -27 6 c-66 16 -112 62 -127 127 l-6
27 80 0 80 0 0 -80z m-2425 -25 c50 -49 15 -135 -55 -135 -19 0 -40 9 -55 25
-16 15 -25 36 -25 55 0 19 9 40 25 55 15 16 36 25 55 25 19 0 40 -9 55 -25z
m1225 14 c0 -6 -13 -24 -29 -40 l-29 -29 -342 0 -342 0 -29 29 c-16 16 -29 34
-29 40 0 8 121 11 400 11 279 0 400 -3 400 -11z m535 -14 c50 -49 15 -135 -55
-135 -41 0 -80 39 -80 80 0 41 39 80 80 80 19 0 40 -9 55 -25z"/>
</g>
</svg>
